<svg xmlns="http://www.w3.org/2000/svg" xmlns:xlink="http://www.w3.org/1999/xlink" id="Jefferson_Health_4C_HR" data-name="Jefferson Health 4C HR" width="208.05" height="35.58" viewBox="0 0 252 43.093" class="logo-svg" aria-label="Jefferson Health logo">
  <defs>
    <clipPath id="clip-path">
      <path id="Clip_2" data-name="Clip 2" d="M23.857,6.238a5.489,5.489,0,0,1,.827.915c.367.53.8,1.631,1.239,2.479s1.122,2.064,1.419,2.591c.009.015.419.333.007.988-.175.276-.557,1.122-.1,1.512a11.616,11.616,0,0,1,2.018,2.341c.849,1.236,1.4,1.877,1.765,2.382a.976.976,0,0,1-.412,1.377c-.436.252-1.467.206-1.537.757A4.451,4.451,0,0,0,29.224,23a2.165,2.165,0,0,1-.231,1.007c-.045.184.413.667.413.965s-.345.825-.276,1.168,1.079,1.445.849,2.361a2.32,2.32,0,0,1-1.558,1.767c-.827.3-1.08.045-2.225.367s-2.659.661-2.659.661l.094-1.634a29.676,29.676,0,0,0-8.551-1.837C8.5,27.2,5.537,29.715,5.537,29.715l.052.376a16.076,16.076,0,0,1-1.9-.373,1.747,1.747,0,0,1-1.213-.906c-.657-1.036-.012-3.083-.791-4.3s-1.9-2.5-1.649-4.7a13.319,13.319,0,0,1,.891-3.623,5.65,5.65,0,0,1-.09-1.949c.573-2.98.985-2.429,1.259-3.9A11.1,11.1,0,0,1,4.163,6.078c.731-.8.71-2.156,2.129-3.464A9.663,9.663,0,0,1,12.3,0a21.385,21.385,0,0,1,4.93.848,6.339,6.339,0,0,1,3.256.873c1.534.961,2.016,1.513,2.658,1.855A2.179,2.179,0,0,1,24.2,4.864a1.513,1.513,0,0,1-.346,1.374" transform="translate(0 0)" fill="url(#radial-gradient)"></path>
    </clipPath>
    <radialGradient id="radial-gradient" cx="0.941" cy="0.555" r="0.839" gradientUnits="objectBoundingBox">
      <stop offset="0" stop-color="#fffffe"></stop>
      <stop offset="1" stop-color="#5caecd"></stop>
    </radialGradient>
    <clipPath id="clip-path-2">
      <path id="Clip_5" data-name="Clip 5" d="M10.434,1.386a14.346,14.346,0,0,1,7.188,5.3l.485-3.913,2.571,8.8-2.72-.8-.325,2.876h-.079a22.354,22.354,0,0,0-7.5-5.986A17.935,17.935,0,0,0,0,6.674L.307.155A21.478,21.478,0,0,1,10.434,1.386Z" fill="url(#radial-gradient)"></path>
    </clipPath>
    <radialGradient id="radial-gradient-2" cx="0.127" cy="0.403" r="0.106" xlink:href="#radial-gradient"></radialGradient>
    <clipPath id="clip-path-3">
      <path id="Clip_8" data-name="Clip 8" d="M4.462,0A2.076,2.076,0,0,0,5.608.77a8.312,8.312,0,0,0,1.465.287h0L6.74,6.117A12.7,12.7,0,0,1,4.532,8.8c-1.8,1.75-4.21,2.361-4.471,2.124S.444,9.613.87,8.5c.413-1.085.225-1.51.11-3.514C.8,1.859,4.462,0,4.462,0Z" transform="translate(0 0)" fill="url(#radial-gradient)"></path>
    </clipPath>
  </defs>
  <g id="Group_3" data-name="Group 3" transform="translate(2.759 0)">
    <path id="Clip_2-2" data-name="Clip 2" d="M23.857,6.238a5.489,5.489,0,0,1,.827.915c.367.53.8,1.631,1.239,2.479s1.122,2.064,1.419,2.591c.009.015.419.333.007.988-.175.276-.557,1.122-.1,1.512a11.616,11.616,0,0,1,2.018,2.341c.849,1.236,1.4,1.877,1.765,2.382a.976.976,0,0,1-.412,1.377c-.436.252-1.467.206-1.537.757A4.451,4.451,0,0,0,29.224,23a2.165,2.165,0,0,1-.231,1.007c-.045.184.413.667.413.965s-.345.825-.276,1.168,1.079,1.445.849,2.361a2.32,2.32,0,0,1-1.558,1.767c-.827.3-1.08.045-2.225.367s-2.659.661-2.659.661l.094-1.634a29.676,29.676,0,0,0-8.551-1.837C8.5,27.2,5.537,29.715,5.537,29.715l.052.376a16.076,16.076,0,0,1-1.9-.373,1.747,1.747,0,0,1-1.213-.906c-.657-1.036-.012-3.083-.791-4.3s-1.9-2.5-1.649-4.7a13.319,13.319,0,0,1,.891-3.623,5.65,5.65,0,0,1-.09-1.949c.573-2.98.985-2.429,1.259-3.9A11.1,11.1,0,0,1,4.163,6.078c.731-.8.71-2.156,2.129-3.464A9.663,9.663,0,0,1,12.3,0a21.385,21.385,0,0,1,4.93.848,6.339,6.339,0,0,1,3.256.873c1.534.961,2.016,1.513,2.658,1.855A2.179,2.179,0,0,1,24.2,4.864a1.513,1.513,0,0,1-.346,1.374" transform="translate(0 0)" fill="none"></path>
    <g id="Group_3-2" data-name="Group 3" transform="translate(0)" clip-path="url(#clip-path)">
      <path id="Fill_0" data-name="Fill 0" d="M23.857,6.238a5.489,5.489,0,0,1,.827.915c.367.53.8,1.631,1.239,2.479s1.122,2.064,1.419,2.591c.009.015.419.333.007.988-.175.276-.557,1.122-.1,1.512a11.616,11.616,0,0,1,2.018,2.341c.849,1.236,1.4,1.877,1.765,2.382a.976.976,0,0,1-.412,1.377c-.436.252-1.467.206-1.537.757A4.451,4.451,0,0,0,29.224,23a2.165,2.165,0,0,1-.231,1.007c-.045.184.413.667.413.965s-.345.825-.276,1.168,1.079,1.445.849,2.361a2.32,2.32,0,0,1-1.558,1.767c-.827.3-1.08.045-2.225.367s-2.659.661-2.659.661l.094-1.634a29.676,29.676,0,0,0-8.551-1.837C8.5,27.2,5.537,29.715,5.537,29.715l.052.376a16.076,16.076,0,0,1-1.9-.373,1.747,1.747,0,0,1-1.213-.906c-.657-1.036-.012-3.083-.791-4.3s-1.9-2.5-1.649-4.7a13.319,13.319,0,0,1,.891-3.623,5.65,5.65,0,0,1-.09-1.949c.573-2.98.985-2.429,1.259-3.9A11.1,11.1,0,0,1,4.163,6.078c.731-.8.71-2.156,2.129-3.464A9.663,9.663,0,0,1,12.3,0a21.385,21.385,0,0,1,4.93.848,6.339,6.339,0,0,1,3.256.873c1.534.961,2.016,1.513,2.658,1.855A2.179,2.179,0,0,1,24.2,4.864a1.513,1.513,0,0,1-.346,1.374" transform="translate(0 0)" fill="url(#radial-gradient)"></path>
    </g>
  </g>
  <g id="Group_6" data-name="Group 6" transform="translate(7.834 29.449)">
    <path id="Clip_5-2" data-name="Clip 5" d="M10.434,1.386a14.346,14.346,0,0,1,7.188,5.3l.485-3.913,2.571,8.8-2.72-.8-.325,2.876h-.079a22.354,22.354,0,0,0-7.5-5.986A17.935,17.935,0,0,0,0,6.674L.307.155A21.478,21.478,0,0,1,10.434,1.386Z" transform="translate(0 0)" fill="none"></path>
    <g id="Group_6-2" data-name="Group 6" transform="translate(0 0)" clip-path="url(#clip-path-2)">
      <path id="Fill_4" data-name="Fill 4" d="M0,43.091H252V0H0Z" transform="translate(-7.834 -29.448)" fill="url(#radial-gradient-2)"></path>
    </g>
  </g>
  <g id="Group_9" data-name="Group 9" transform="translate(0 30.22)">
    <path id="Clip_8-2" data-name="Clip 8" d="M4.462,0A2.076,2.076,0,0,0,5.608.77a8.312,8.312,0,0,0,1.465.287h0L6.74,6.117A12.7,12.7,0,0,1,4.532,8.8c-1.8,1.75-4.21,2.361-4.471,2.124S.444,9.613.87,8.5c.413-1.085.225-1.51.11-3.514C.8,1.859,4.462,0,4.462,0Z" transform="translate(0 0)" fill="none"></path>
    <g id="Group_9-2" data-name="Group 9" transform="translate(0 0)" clip-path="url(#clip-path-3)">
      <path id="Fill_7" data-name="Fill 7" d="M0,43.091H252V0H0Z" transform="translate(0 -30.22)" fill="url(#radial-gradient-2)"></path>
    </g>
  </g>
  <path id="Fill_10" data-name="Fill 10" d="M0,17.321a5.144,5.144,0,0,0,1.879.339c2.555,0,2.555-2.05,2.555-3.452V0H8.36V16.088c0,2.076-1.346,4.993-5.357,4.993a11.086,11.086,0,0,1-3-.367V17.321" transform="translate(42.125 9.503)" fill="#fffffe"></path>
  <path id="Fill_11" data-name="Fill 11" d="M7.546,15.118a7.689,7.689,0,0,1-5.562-1.967A7.562,7.562,0,0,1,0,7.628,8.464,8.464,0,0,1,1.669,2.247,6.209,6.209,0,0,1,6.7,0c2.54,0,4.32.807,5.444,2.467.96,1.419,1.427,3.465,1.427,6.255H3.59a3.819,3.819,0,0,0,1.252,2.7,4.316,4.316,0,0,0,2.873.95A9.788,9.788,0,0,0,12.51,10.91v3.056A9.883,9.883,0,0,1,7.546,15.118ZM6.929,2.749a3.088,3.088,0,0,0-2.4.97A4.079,4.079,0,0,0,3.59,6.141h6.4A4.266,4.266,0,0,0,9.2,3.761,2.735,2.735,0,0,0,6.929,2.749Z" transform="translate(53.123 15.466)" fill="#fffffe"></path>
  <path id="Fill_12" data-name="Fill 12" d="M2.779,9.677H0V6.929H2.779V4.91C2.779,2.019,4.4,0,7.378,0a13.452,13.452,0,0,1,2.749.307L9.818,3.422a2.921,2.921,0,0,0-1.627-.5c-1.262,0-1.656,1.1-1.656,2.215v1.8H9.818V9.677H6.535v11.7H2.779V9.677" transform="translate(67.68 8.872)" fill="#fffffe"></path>
  <path id="Fill_13" data-name="Fill 13" d="M2.777,9.679H0V6.93H2.777V4.911C2.777,2.021,4.405,0,7.378,0a13.207,13.207,0,0,1,2.747.31L9.818,3.425a2.907,2.907,0,0,0-1.627-.507c-1.262,0-1.655,1.094-1.655,2.216v1.8H9.818V9.679H6.536V21.374H2.777V9.679" transform="translate(78.402 8.872)" fill="#fffffe"></path>
  <path id="Fill_14" data-name="Fill 14" d="M7.544,15.118a7.685,7.685,0,0,1-5.56-1.967A7.564,7.564,0,0,1,0,7.628,8.467,8.467,0,0,1,1.668,2.247,6.206,6.206,0,0,1,6.7,0c2.542,0,4.324.807,5.447,2.467.961,1.419,1.427,3.465,1.427,6.255H3.589a3.821,3.821,0,0,0,1.253,2.7,4.313,4.313,0,0,0,2.871.95,9.823,9.823,0,0,0,4.8-1.458v3.056A9.911,9.911,0,0,1,7.544,15.118ZM6.925,2.749a3.085,3.085,0,0,0-2.393.97,4.084,4.084,0,0,0-.943,2.422h6.4A4.25,4.25,0,0,0,9.2,3.761,2.742,2.742,0,0,0,6.925,2.749Z" transform="translate(89.079 15.466)" fill="#fffffe"></path>
  <path id="Fill_15" data-name="Fill 15" d="M0,.334H3.341V3.616H3.4C3.562,2.271,5.107,0,7.351,0A4.182,4.182,0,0,1,8.5.11V3.9a3.835,3.835,0,0,0-1.685-.309c-3.058,0-3.058,3.813-3.058,5.889v5.3H0V.334" transform="translate(104.505 15.466)" fill="#fffffe"></path>
  <path id="Fill_16" data-name="Fill 16" d="M9.509,3.365a9.224,9.224,0,0,0-3.364-.616c-1.01,0-2.216.364-2.216,1.6,0,2.3,6.536.84,6.536,6.057,0,3.365-3,4.714-6.062,4.714A16.758,16.758,0,0,1,.143,14.5l.224-3.086a8.243,8.243,0,0,0,3.7.954c.954,0,2.468-.364,2.468-1.767C6.536,7.767,0,9.7,0,4.487,0,1.371,2.723,0,5.668,0A17.424,17.424,0,0,1,9.762.531L9.509,3.365" transform="translate(114.42 15.466)" fill="#fffffe"></path>
  <path id="Fill_17" data-name="Fill 17" d="M7.548,15.118a7.476,7.476,0,0,1-5.562-2.174A7.559,7.559,0,0,1,0,7.655,7.611,7.611,0,0,1,2.174,2.039,7.614,7.614,0,0,1,7.548,0a7.652,7.652,0,0,1,5.394,2.039A7.6,7.6,0,0,1,15.12,7.655a7.551,7.551,0,0,1-1.987,5.289A7.512,7.512,0,0,1,7.548,15.118Zm0-12.2A3.275,3.275,0,0,0,4.821,4.252a4.951,4.951,0,0,0-.9,2.956c0,1.865.471,4.993,3.622,4.993,3.172,0,3.645-3.128,3.645-4.993C11.194,5.072,10.066,2.916,7.548,2.916Z" transform="translate(126.439 15.466)" fill="#fffffe"></path>
  <path id="Fill_18" data-name="Fill 18" d="M0,.334H3.562V2.3H3.62A5.388,5.388,0,0,1,8.358,0c3.426,0,4.911,2.41,4.911,5.666v9.113H9.509V7.067c0-1.768-.025-4.153-2.44-4.153-2.72,0-3.308,2.946-3.308,4.8v7.066H0V.334" transform="translate(143.921 15.466)" fill="#fffffe"></path>
  <path id="Fill_19" data-name="Fill 19" d="M61.331,21.086c-2.822,0-4.507-1.727-4.507-4.619V9.221H54.086V6.511h2.738V3.664L60.53,2.472V6.511h3.29v2.71H60.53v6.638c0,1.582.57,2.35,1.742,2.35a3.3,3.3,0,0,0,1.687-.388l.11,2.932A9.729,9.729,0,0,1,61.331,21.086Zm-23.642,0a5.7,5.7,0,0,1-3.433-1.1,3.837,3.837,0,0,1-1.545-3.133,4.185,4.185,0,0,1,2.433-4.065,11.016,11.016,0,0,1,4.784-.829h2.048a3.046,3.046,0,0,0-.785-2.4,3.477,3.477,0,0,0-2.423-.674,7.483,7.483,0,0,0-4.4,1.549l-.11-3.181A12.782,12.782,0,0,1,39.209,6.18c2.186,0,3.722.466,4.7,1.424s1.442,2.45,1.442,4.576v1.825c0,1.434.028,2.513.055,3.557v.009c.027,1.021.078,2,.166,3.181H42.306a12.832,12.832,0,0,1-.146-1.705c-.006-.166-.012-.31-.02-.423h-.054A5.071,5.071,0,0,1,37.689,21.086Zm2.682-6.915c-2.734,0-4.121.829-4.121,2.464,0,1.107.857,1.742,2.35,1.742A3.128,3.128,0,0,0,41.2,17.1a4.682,4.682,0,0,0,.776-2.932ZM25.258,21.086a7.581,7.581,0,0,1-5.483-1.939A7.457,7.457,0,0,1,17.818,13.7,8.345,8.345,0,0,1,19.464,8.4,6.122,6.122,0,0,1,24.429,6.18c2.5,0,4.26.8,5.368,2.433.947,1.4,1.407,3.416,1.407,6.167H21.357a3.772,3.772,0,0,0,1.235,2.659,4.25,4.25,0,0,0,2.83.937,9.679,9.679,0,0,0,4.729-1.439v3.015A9.77,9.77,0,0,1,25.258,21.086Zm-.61-12.2a3.04,3.04,0,0,0-2.359.958,4.031,4.031,0,0,0-.931,2.388h6.305C27.483,9.324,25.7,8.889,24.648,8.889ZM69.721,20.754H66.015V.012h3.706V8.448h.057A5.294,5.294,0,0,1,74.256,6.18a4.439,4.439,0,0,1,3.686,1.59,6.384,6.384,0,0,1,1.155,4v8.987H75.391v-7.6a8.12,8.12,0,0,0-.311-2.7,2.024,2.024,0,0,0-2.1-1.393,2.791,2.791,0,0,0-2.637,1.68,7.13,7.13,0,0,0-.626,3.049v6.968Zm-65.849,0H0V0H3.871V8.515h7.744V0h3.871V20.752H11.616v-9.2H3.871v9.2Zm48.43,0H48.595V.012H52.3v20.74Z" transform="translate(165.659 9.475)" fill="#fffffe"></path>
  <path id="Fill_20" data-name="Fill 20" d="M2.889,5.941A2.935,2.935,0,0,1,0,2.968,2.933,2.933,0,0,1,2.889,0,2.874,2.874,0,0,1,4.956.867a2.977,2.977,0,0,1,.851,2.1A2.949,2.949,0,0,1,2.889,5.941Zm0-5.381A2.315,2.315,0,0,0,.624,2.968,2.318,2.318,0,0,0,2.889,5.381a2.332,2.332,0,0,0,2.3-2.413A2.329,2.329,0,0,0,2.889.56ZM2.567,4.435H1.879V1.47H3.11a.906.906,0,0,1,.973.939.774.774,0,0,1-.53.768v.017a.844.844,0,0,1,.106.166l.56,1.072H3.458l-.5-1.093H2.567V4.434Zm0-2.46v.88h.379a.406.406,0,0,0,.43-.446.39.39,0,0,0-.421-.434Z" transform="translate(246.194 24.624)" fill="#fffffe"></path>
</svg>