<?xml version="1.0" encoding="utf-8"?>
<!-- Generator: Adobe Illustrator 15.1.0, SVG Export Plug-In . SVG Version: 6.00 Build 0)  -->
<!DOCTYPE svg PUBLIC "-//W3C//DTD SVG 1.1//EN" "http://www.w3.org/Graphics/SVG/1.1/DTD/svg11.dtd">
<svg version="1.1" id="Layer_1" xmlns="http://www.w3.org/2000/svg" xmlns:xlink="http://www.w3.org/1999/xlink" x="0px" y="0px"
	 width="195px" height="91.5px" viewBox="0 0 195 91.5" enable-background="new 0 0 195 91.5" xml:space="preserve">
<g>
	<path fill="#FFFFFF" d="M71.404,37.117c5.208-13.258-1.067-28.388-14.258-34.003C44.152-2.417,29.15,3.283,23.022,15.832
		c-0.06,0.107-0.129,0.206-0.179,0.32L1.311,66.737c-0.839,1.968,0.079,4.243,2.047,5.081c1.968,0.837,4.243-0.078,5.082-2.048
		l14.292-33.573c0.476,1.795,1.021,3.565,1.606,5.272L7.448,81.144c-0.837,1.969,0.08,4.243,2.048,5.081
		c1.97,0.838,4.243-0.08,5.082-2.047l13.869-32.581c0.833,1.79,1.562,3.235,2.064,4.2l-8.671,20.37
		c-0.837,1.966,0.08,4.24,2.048,5.08c1.968,0.837,4.243-0.08,5.082-2.048l8.669-20.37c1.045-0.304,2.59-0.781,4.458-1.421
		L30.315,85.085c-0.839,1.966,0.079,4.243,2.046,5.08c1.968,0.839,4.244-0.078,5.081-2.048L52.245,53.35
		c1.636-0.763,3.29-1.596,4.913-2.498L42.755,84.685c-0.837,1.971,0.08,4.241,2.047,5.081c1.968,0.839,4.243-0.076,5.082-2.046
		l21.462-50.42C71.371,37.241,71.38,37.178,71.404,37.117z M38.27,47.451c-4.212-9.026-8.159-21.172-6.025-26.185
		c3.412-8.018,12.711-11.763,20.729-8.351c8.018,3.412,11.763,12.713,8.349,20.73C59.199,38.644,47.702,44.221,38.27,47.451z"/>
	<g>
		<path fill="#FFFFFF" d="M156.3,31.934c0,0.368-0.014,0.663-0.039,0.884c-0.025,0.222-0.063,0.395-0.113,0.514
			c-0.052,0.12-0.106,0.203-0.171,0.249c-0.064,0.043-0.134,0.065-0.209,0.065c-0.089,0-0.188-0.022-0.296-0.065
			c-0.107-0.045-0.238-0.094-0.399-0.145c-0.156-0.05-0.345-0.097-0.561-0.142c-0.215-0.043-0.47-0.065-0.761-0.065
			c-0.344,0-0.638,0.055-0.884,0.162c-0.249,0.108-0.455,0.279-0.619,0.513c-0.165,0.234-0.284,0.539-0.36,0.914
			c-0.077,0.373-0.114,0.833-0.114,1.378v1.56h3.1c0.114,0,0.219,0.032,0.314,0.095c0.096,0.063,0.174,0.167,0.237,0.313
			c0.063,0.146,0.111,0.345,0.144,0.599c0.03,0.254,0.046,0.564,0.046,0.933c0,0.696-0.063,1.194-0.189,1.491
			c-0.128,0.299-0.312,0.449-0.552,0.449h-3.1v13.73c0,0.129-0.038,0.239-0.114,0.333c-0.077,0.097-0.203,0.174-0.382,0.238
			c-0.176,0.063-0.424,0.111-0.74,0.142c-0.317,0.034-0.705,0.049-1.161,0.049s-0.84-0.015-1.15-0.049
			c-0.312-0.03-0.558-0.078-0.741-0.142c-0.184-0.064-0.312-0.142-0.382-0.238c-0.068-0.094-0.103-0.204-0.103-0.333v-13.73h-2.13
			c-0.241,0-0.423-0.15-0.542-0.449c-0.122-0.297-0.182-0.795-0.182-1.491c0-0.369,0.016-0.679,0.047-0.933
			c0.032-0.254,0.077-0.453,0.135-0.599c0.056-0.146,0.134-0.25,0.227-0.313c0.097-0.063,0.207-0.095,0.333-0.095H147v-1.429
			c0-1.152,0.112-2.163,0.342-3.032c0.228-0.868,0.587-1.591,1.073-2.167c0.489-0.578,1.11-1.012,1.864-1.302
			c0.755-0.292,1.645-0.438,2.672-0.438c0.495,0,0.964,0.039,1.409,0.124c0.443,0.082,0.791,0.171,1.045,0.265
			c0.254,0.097,0.426,0.184,0.515,0.266c0.088,0.083,0.161,0.202,0.218,0.361c0.058,0.159,0.098,0.362,0.123,0.611
			C156.286,31.259,156.3,31.565,156.3,31.934z"/>
	</g>
	<g>
		<path fill="#FFFFFF" d="M161.627,55.365c0,0.129-0.038,0.239-0.114,0.333c-0.077,0.097-0.208,0.174-0.391,0.238
			c-0.185,0.063-0.428,0.111-0.731,0.142c-0.304,0.034-0.692,0.049-1.161,0.049c-0.468,0-0.854-0.015-1.16-0.049
			c-0.304-0.03-0.549-0.078-0.732-0.142c-0.184-0.064-0.313-0.142-0.39-0.238c-0.074-0.094-0.114-0.204-0.114-0.333V38.438
			c0-0.128,0.04-0.238,0.114-0.334c0.077-0.094,0.206-0.177,0.39-0.245c0.184-0.07,0.429-0.124,0.732-0.163
			c0.306-0.038,0.692-0.058,1.16-0.058c0.469,0,0.857,0.02,1.161,0.058c0.304,0.039,0.547,0.093,0.731,0.163
			c0.183,0.068,0.313,0.151,0.391,0.245c0.076,0.096,0.114,0.206,0.114,0.334V55.365z"/>
	</g>
	<path fill="#FFFFFF" d="M91.979,55.936c0,1.33-0.114,2.409-0.343,3.234c-0.227,0.822-0.573,1.517-1.037,2.082
		c-0.463,0.564-1.041,0.989-1.738,1.274c-0.699,0.285-1.518,0.427-2.455,0.427c-0.521,0-0.964-0.034-1.332-0.103
		c-0.369-0.072-0.634-0.143-0.799-0.22c-0.164-0.075-0.278-0.171-0.341-0.285c-0.064-0.114-0.11-0.246-0.134-0.39
		c-0.026-0.146-0.045-0.312-0.057-0.496c-0.013-0.184-0.02-0.421-0.02-0.712c0-0.355,0.01-0.649,0.028-0.884
		c0.02-0.234,0.056-0.422,0.105-0.561c0.051-0.139,0.108-0.241,0.172-0.303c0.063-0.064,0.146-0.097,0.247-0.097
		c0.064,0,0.194,0.016,0.39,0.048c0.196,0.033,0.409,0.049,0.638,0.049c0.33,0,0.613-0.052,0.854-0.153
		c0.241-0.102,0.438-0.264,0.589-0.485c0.152-0.222,0.267-0.507,0.344-0.856c0.076-0.348,0.112-0.903,0.112-1.664V38.438
		c0-0.128,0.04-0.238,0.117-0.334c0.074-0.094,0.201-0.177,0.379-0.245c0.178-0.07,0.418-0.124,0.724-0.163
		c0.303-0.038,0.69-0.058,1.159-0.058c0.47,0,0.855,0.02,1.16,0.058c0.306,0.039,0.548,0.093,0.732,0.163
		c0.184,0.068,0.314,0.151,0.39,0.245c0.076,0.096,0.114,0.206,0.114,0.334V55.936z M92.341,32.656c0,0.963-0.193,1.629-0.579,1.998
		c-0.389,0.368-1.12,0.55-2.198,0.55c-1.064,0-1.787-0.177-2.169-0.532c-0.38-0.354-0.57-0.996-0.57-1.92
		c0-0.964,0.195-1.632,0.591-2.007c0.391-0.373,1.121-0.561,2.186-0.561c1.077,0,1.804,0.181,2.177,0.54
		C92.155,31.086,92.341,31.73,92.341,32.656z"/>
	<path fill="#FFFFFF" d="M110.346,46.388c0,0.583-0.132,1.015-0.391,1.294c-0.259,0.278-0.618,0.418-1.075,0.418H98.554
		c0,0.723,0.084,1.379,0.256,1.968c0.172,0.588,0.444,1.092,0.818,1.503c0.374,0.411,0.855,0.725,1.446,0.942
		c0.589,0.215,1.297,0.322,2.12,0.322c0.836,0,1.572-0.061,2.206-0.181c0.635-0.12,1.183-0.253,1.646-0.399
		c0.463-0.146,0.846-0.281,1.151-0.4c0.304-0.119,0.551-0.181,0.742-0.181c0.114,0,0.209,0.022,0.285,0.067
		c0.077,0.045,0.141,0.124,0.189,0.237c0.053,0.115,0.086,0.276,0.106,0.485c0.019,0.209,0.027,0.472,0.027,0.789
		c0,0.28-0.006,0.518-0.019,0.714s-0.03,0.365-0.058,0.504c-0.025,0.14-0.063,0.256-0.113,0.354
		c-0.052,0.094-0.118,0.187-0.199,0.273c-0.084,0.089-0.309,0.21-0.675,0.362c-0.369,0.153-0.838,0.302-1.409,0.446
		c-0.569,0.146-1.223,0.272-1.957,0.382c-0.737,0.106-1.522,0.163-2.36,0.163c-1.508,0-2.83-0.191-3.965-0.573
		c-1.135-0.38-2.083-0.957-2.843-1.73c-0.762-0.773-1.33-1.75-1.703-2.929c-0.373-1.18-0.561-2.561-0.561-4.146
		c0-1.51,0.196-2.868,0.589-4.08c0.393-1.209,0.964-2.238,1.713-3.082c0.746-0.842,1.657-1.485,2.728-1.931
		c1.072-0.443,2.28-0.667,3.624-0.667c1.42,0,2.634,0.211,3.643,0.628c1.009,0.419,1.835,0.998,2.481,1.741
		c0.647,0.743,1.124,1.621,1.428,2.634c0.302,1.015,0.456,2.117,0.456,3.31V46.388z M105.704,45.019
		c0.039-1.344-0.23-2.399-0.807-3.168c-0.578-0.766-1.467-1.15-2.672-1.15c-0.609,0-1.14,0.115-1.59,0.344
		c-0.449,0.229-0.824,0.536-1.121,0.922c-0.297,0.385-0.526,0.843-0.685,1.371c-0.159,0.526-0.25,1.086-0.275,1.682H105.704z"/>
	<path fill="#FFFFFF" d="M116.869,55.365c0,0.129-0.038,0.239-0.114,0.333c-0.075,0.097-0.207,0.174-0.391,0.238
		c-0.184,0.063-0.428,0.111-0.731,0.142c-0.304,0.034-0.691,0.049-1.16,0.049c-0.468,0-0.855-0.015-1.159-0.049
		c-0.305-0.03-0.55-0.078-0.733-0.142c-0.184-0.064-0.313-0.142-0.39-0.238c-0.075-0.094-0.114-0.204-0.114-0.333v-25.01
		c0-0.127,0.039-0.241,0.114-0.342c0.076-0.103,0.206-0.187,0.39-0.257c0.184-0.07,0.429-0.123,0.733-0.163
		c0.304-0.037,0.691-0.056,1.159-0.056c0.469,0,0.856,0.019,1.16,0.056c0.304,0.04,0.548,0.093,0.731,0.163
		c0.184,0.071,0.315,0.155,0.391,0.257c0.076,0.101,0.114,0.215,0.114,0.342V55.365z"/>
	<path fill="#FFFFFF" d="M124.146,55.365c0,0.129-0.04,0.239-0.116,0.333c-0.075,0.097-0.206,0.174-0.39,0.238
		c-0.184,0.063-0.429,0.111-0.729,0.142c-0.307,0.034-0.692,0.049-1.163,0.049c-0.469,0-0.854-0.015-1.159-0.049
		c-0.306-0.03-0.549-0.078-0.732-0.142c-0.184-0.064-0.313-0.142-0.391-0.238c-0.075-0.094-0.112-0.204-0.112-0.333v-25.01
		c0-0.127,0.037-0.241,0.112-0.342c0.078-0.103,0.207-0.187,0.391-0.257c0.184-0.07,0.427-0.123,0.732-0.163
		c0.305-0.037,0.69-0.056,1.159-0.056c0.471,0,0.856,0.019,1.163,0.056c0.301,0.04,0.546,0.093,0.729,0.163
		c0.184,0.071,0.314,0.155,0.39,0.257c0.076,0.101,0.116,0.215,0.116,0.342V55.365z"/>
	<path fill="#FFFFFF" d="M137.416,56.011l-2.055,6.012c-0.113,0.317-0.424,0.544-0.931,0.685c-0.508,0.139-1.251,0.208-2.226,0.208
		c-0.507,0-0.913-0.023-1.218-0.065c-0.304-0.045-0.533-0.12-0.685-0.22c-0.151-0.102-0.234-0.228-0.247-0.379
		c-0.013-0.154,0.025-0.336,0.113-0.551l2.265-5.689c-0.165-0.075-0.314-0.191-0.448-0.351c-0.132-0.159-0.23-0.326-0.294-0.502
		l-5.839-15.598c-0.165-0.443-0.248-0.783-0.248-1.016c0-0.236,0.077-0.42,0.229-0.553c0.151-0.131,0.408-0.224,0.77-0.274
		c0.36-0.051,0.84-0.078,1.436-0.078c0.545,0,0.978,0.01,1.294,0.03c0.317,0.019,0.564,0.067,0.741,0.142
		c0.178,0.077,0.312,0.193,0.401,0.352c0.088,0.158,0.177,0.385,0.265,0.676l3.993,11.354h0.058l3.652-11.583
		c0.075-0.33,0.174-0.547,0.294-0.655c0.122-0.108,0.321-0.187,0.599-0.237c0.278-0.051,0.767-0.078,1.465-0.078
		c0.546,0,1,0.027,1.36,0.078c0.361,0.05,0.628,0.144,0.799,0.285c0.172,0.139,0.257,0.326,0.257,0.561
		c0,0.234-0.051,0.512-0.152,0.827L137.416,56.011z"/>
	<path fill="#FFFFFF" d="M176.16,50.574c0,0.962-0.18,1.813-0.541,2.548c-0.362,0.735-0.873,1.35-1.533,1.845
		c-0.659,0.494-1.438,0.864-2.34,1.111c-0.898,0.247-1.874,0.374-2.927,0.374c-0.635,0-1.241-0.049-1.816-0.145
		c-0.576-0.095-1.095-0.215-1.55-0.361c-0.457-0.146-0.838-0.295-1.143-0.447c-0.304-0.153-0.526-0.294-0.667-0.428
		c-0.139-0.134-0.245-0.343-0.322-0.627c-0.075-0.285-0.114-0.706-0.114-1.266c0-0.367,0.014-0.662,0.039-0.885
		c0.025-0.22,0.063-0.398,0.112-0.53c0.053-0.135,0.114-0.224,0.191-0.268c0.077-0.042,0.172-0.064,0.285-0.064
		c0.141,0,0.347,0.079,0.619,0.236c0.273,0.16,0.609,0.332,1.017,0.523c0.406,0.19,0.877,0.369,1.417,0.533
		c0.54,0.166,1.151,0.247,1.837,0.247c0.429,0,0.814-0.044,1.15-0.133c0.337-0.087,0.628-0.216,0.874-0.38
		c0.248-0.166,0.436-0.373,0.563-0.628c0.126-0.251,0.19-0.543,0.19-0.873c0-0.38-0.12-0.708-0.354-0.981
		c-0.234-0.272-0.543-0.51-0.93-0.714c-0.388-0.201-0.825-0.392-1.313-0.568c-0.487-0.178-0.989-0.376-1.503-0.591
		c-0.514-0.216-1.014-0.463-1.503-0.742c-0.488-0.278-0.926-0.62-1.31-1.027c-0.389-0.406-0.699-0.894-0.936-1.465
		c-0.231-0.57-0.35-1.256-0.35-2.055c0-0.811,0.156-1.556,0.475-2.235c0.315-0.678,0.773-1.257,1.37-1.738
		c0.595-0.482,1.322-0.857,2.179-1.122c0.854-0.267,1.815-0.402,2.881-0.402c0.53,0,1.05,0.04,1.549,0.117
		c0.503,0.074,0.955,0.171,1.361,0.285c0.404,0.113,0.747,0.237,1.024,0.372c0.28,0.132,0.479,0.245,0.601,0.339
		c0.121,0.097,0.205,0.191,0.258,0.288c0.049,0.095,0.087,0.208,0.112,0.343c0.025,0.133,0.049,0.297,0.067,0.492
		c0.02,0.198,0.028,0.442,0.028,0.734c0,0.342-0.009,0.621-0.028,0.838c-0.019,0.216-0.05,0.384-0.096,0.513
		c-0.041,0.126-0.104,0.21-0.182,0.255c-0.073,0.044-0.163,0.067-0.264,0.067c-0.116,0-0.292-0.067-0.534-0.201
		c-0.24-0.132-0.541-0.277-0.903-0.428c-0.361-0.151-0.78-0.295-1.254-0.428c-0.478-0.133-1.02-0.201-1.627-0.201
		c-0.431,0-0.805,0.045-1.122,0.134c-0.317,0.089-0.578,0.215-0.78,0.381c-0.202,0.164-0.354,0.358-0.456,0.579
		c-0.101,0.223-0.15,0.46-0.15,0.713c0,0.395,0.12,0.724,0.358,0.991c0.242,0.265,0.56,0.5,0.952,0.703
		c0.394,0.202,0.839,0.393,1.341,0.572c0.502,0.176,1.007,0.37,1.523,0.579c0.511,0.209,1.019,0.455,1.519,0.732
		c0.501,0.279,0.948,0.621,1.341,1.027c0.394,0.407,0.71,0.891,0.951,1.454C176.039,49.13,176.16,49.799,176.16,50.574z"/>
	<path fill="#FFFFFF" d="M193.819,55.365c0,0.129-0.036,0.239-0.115,0.333c-0.075,0.097-0.201,0.174-0.379,0.238
		c-0.177,0.063-0.423,0.111-0.732,0.142c-0.312,0.034-0.692,0.049-1.153,0.049c-0.466,0-0.855-0.015-1.167-0.049
		c-0.312-0.03-0.556-0.078-0.732-0.142c-0.178-0.064-0.304-0.142-0.379-0.238c-0.079-0.094-0.115-0.204-0.115-0.333v-9.682
		c0-0.822-0.062-1.469-0.18-1.94c-0.123-0.468-0.297-0.87-0.524-1.207c-0.23-0.335-0.522-0.596-0.884-0.78s-0.783-0.277-1.266-0.277
		c-0.609,0-1.224,0.223-1.844,0.666c-0.622,0.446-1.269,1.092-1.939,1.941v11.278c0,0.129-0.039,0.239-0.115,0.333
		c-0.075,0.097-0.207,0.174-0.39,0.238c-0.185,0.063-0.43,0.111-0.731,0.142c-0.307,0.034-0.693,0.049-1.163,0.049
		c-0.469,0-0.855-0.015-1.159-0.049c-0.303-0.03-0.546-0.078-0.731-0.142c-0.186-0.064-0.314-0.142-0.39-0.238
		c-0.077-0.094-0.115-0.204-0.115-0.333v-25.01c0-0.127,0.038-0.241,0.115-0.342c0.075-0.103,0.204-0.187,0.39-0.257
		c0.186-0.07,0.429-0.123,0.731-0.163c0.304-0.037,0.69-0.056,1.159-0.056c0.47,0,0.856,0.019,1.163,0.056
		c0.302,0.04,0.547,0.093,0.731,0.163c0.183,0.071,0.314,0.155,0.39,0.257c0.076,0.101,0.115,0.215,0.115,0.342v9.375
		c0.822-0.81,1.661-1.415,2.517-1.814c0.859-0.401,1.749-0.602,2.675-0.602c1.153,0,2.125,0.191,2.919,0.572
		c0.792,0.381,1.434,0.9,1.921,1.559c0.486,0.66,0.84,1.43,1.057,2.311c0.212,0.881,0.322,1.95,0.322,3.206V55.365z"/>
</g>
</svg>