<svg xmlns="http://www.w3.org/2000/svg" width="65" height="65" stroke="none" stroke-linecap="round" stroke-linejoin="round" fill="#fff" fill-rule="nonzero"><path d="M49.255 12.484c-.047-.283-.278-.5-.564-.527-.2251-.037-5.17-.376-5.17-.376l-3.77-3.77c-.34-.376-1.092-.266-1.376-.188-.037 0-.752.225-1.9221.605-1.1369-3.29-3.1499-6.306-6.6959-6.306h-.303C28.438.605 27.194 0 26.144 0 17.8879.037 13.9539 10.333 12.71 15.594l-5.77 1.77c-1.7701.564-1.835.605-2.073 2.293L0 57.175 36.4679 64l19.7631-4.26c0-.037-6.94-46.897-6.976-47.255zM34.4309 8.86c-.9169.303-1.963.605-3.0899.945v-.68a15.032 15.032 0 0 0-.752-4.999c1.848.284 3.09 2.357 3.843 4.733zM28.363 4.562c.603 1.778.883 3.65.826 5.527v.34l-6.3751 1.963c1.248-4.66 3.5501-6.962 5.55-7.83zm-2.45-2.293c.3771.008.7438.1258 1.055.339-2.6601 1.238-5.472 4.366-6.6781 10.627l-5.045 1.546C16.6679 10.03 19.9879 2.26 25.91 2.26z" fill="#95bf47"/><path d="M48.691 11.957c-.225-.037-5.17-.376-5.17-.376l-3.77-3.77c-.14-.142-.33-.223-.527-.225L36.472 64l19.763-4.26-6.98-47.218a.68.68 0 0 0-.564-.564z" fill="#5e8e3e"/><path d="M29.758 22.89l-2.454 7.242c-1.483-.718-3.104-1.104-4.752-1.133-3.848 0-4.036 2.412-4.036 3.018 0 3.298 8.636 4.564 8.636 12.333 0 6.11-3.885 10.03-9.1 10.03-6.26 0-9.467-3.885-9.467-3.885l1.665-5.55s3.28 2.83 6.073 2.83a2.47 2.47 0 0 0 1.8149-.6963c.4844-.4704.7551-1.1185.7491-1.7937 0-4.34-7.09-4.527-7.09-11.618 0-5.962 4.298-11.77 12.934-11.77 3.394.05 5.018.99 5.018.99z"/></svg>